<?xml version="1.0" encoding="utf-8"?>
<!-- Generator: Adobe Illustrator 28.3.0, SVG Export Plug-In . SVG Version: 6.00 Build 0)  -->
<svg version="1.1" id="Layer_1" xmlns="http://www.w3.org/2000/svg" xmlns:xlink="http://www.w3.org/1999/xlink" x="0px" y="0px"
	 viewBox="0 0 153.91 299.53" style="enable-background:new 0 0 153.91 299.53;" xml:space="preserve">
<style type="text/css">
	.st0{fill:#333132;}
</style>
<g>
	<g id="XMLID_00000039835625166878004630000013676295187297655440_">
		<g>
			<circle class="st0" cx="76.64" cy="25.68" r="25.68"/>
		</g>
	</g>
	<g>
		<g>
			<path class="st0" d="M127.58,116.37l-6.43-1.89l-10.31,2.31l-1.09-6.01l38.95-8.73l1.1,6.01l-17.01,3.81l18.69,5.44l1.26,6.89
				l-17.58-5.19l-21.35,14.04l-1.24-6.85L127.58,116.37z"/>
			<path class="st0" d="M113.8,133.71c-0.09,0-0.17-0.02-0.26-0.05c-0.2-0.08-0.35-0.27-0.39-0.48l-1.25-6.85
				c-0.05-0.26,0.07-0.52,0.29-0.67l13.84-9.05l-4.9-1.45l-10.15,2.28c-0.18,0.04-0.36,0-0.5-0.09c-0.15-0.1-0.25-0.25-0.28-0.43
				l-1.09-6.01c-0.06-0.35,0.16-0.68,0.5-0.76l38.95-8.73c0.17-0.03,0.36-0.01,0.5,0.09c0.15,0.1,0.25,0.25,0.28,0.43l1.09,6.01
				c0.06,0.35-0.16,0.68-0.5,0.76l-14.52,3.26l16.25,4.73c0.24,0.07,0.42,0.27,0.46,0.51l1.26,6.89c0.04,0.23-0.04,0.45-0.21,0.6
				c-0.17,0.15-0.4,0.21-0.62,0.14l-17.29-5.1l-21.1,13.87C114.05,133.67,113.93,133.71,113.8,133.71z M113.28,126.51l0.99,5.45
				l20.52-13.5c0.17-0.11,0.36-0.13,0.55-0.08l16.56,4.89l-0.99-5.44l-18.31-5.33c-0.29-0.08-0.48-0.35-0.47-0.65
				s0.22-0.55,0.51-0.62l16.4-3.68l-0.86-4.72l-37.67,8.44l0.86,4.72l9.65-2.16c0.11-0.02,0.23-0.02,0.33,0.01l6.43,1.89
				c0.25,0.07,0.43,0.28,0.46,0.54c0.04,0.25-0.07,0.5-0.29,0.64L113.28,126.51z"/>
		</g>
		<g>
			<path class="st0" d="M127.68,135.13l8.75-0.52c11.08-0.66,16.33,2.58,16.7,10.23c0.37,7.65-4.53,11.49-15.61,12.15l-8.75,0.52
				c-11.08,0.66-16.33-2.58-16.7-10.23C111.69,139.63,116.6,135.79,127.68,135.13z M128.58,151.4l8.51-0.51
				c6.24-0.37,8.68-1.94,8.5-5.61c-0.17-3.66-2.75-4.94-8.99-4.56l-8.52,0.51c-6.24,0.37-8.68,1.94-8.5,5.61
				C119.77,150.49,122.34,151.77,128.58,151.4z"/>
			<path class="st0" d="M126.11,158.25c-5.29,0-9.06-1.06-11.47-3.23c-2.01-1.81-3.07-4.33-3.24-7.71
				c-0.39-8.08,4.77-12.16,16.23-12.84l8.75-0.52c6.73-0.38,11.36,0.63,14.15,3.14c2.01,1.81,3.08,4.33,3.24,7.72
				c0.39,8.07-4.77,12.15-16.23,12.84l-8.75,0.52C127.86,158.22,126.97,158.25,126.11,158.25z M127.72,135.79
				c-10.73,0.63-15.35,4.17-15,11.47c0.14,3.01,1.06,5.23,2.8,6.8c2.52,2.26,6.84,3.19,13.2,2.81l8.75-0.52
				c10.72-0.64,15.35-4.18,15-11.47c-0.15-3.01-1.06-5.24-2.8-6.8c-2.53-2.27-6.84-3.2-13.2-2.81L127.72,135.79L127.72,135.79z
				 M127.68,135.13h0.02H127.68z M126.65,152.12c-3.02,0-4.97-0.52-6.2-1.62c-0.95-0.85-1.45-2.04-1.53-3.63
				c-0.24-5.04,4.24-6.01,9.12-6.3l8.52-0.5c4.16-0.24,6.69,0.23,8.16,1.55c0.95,0.85,1.45,2.04,1.52,3.64
				c0.24,5.04-4.24,6-9.12,6.29l-8.51,0.51l0,0C127.92,152.1,127.26,152.12,126.65,152.12z M128.58,151.4h0.02H128.58z
				 M138.55,141.31c-0.59,0-1.22,0.02-1.9,0.06l-8.52,0.5c-6.74,0.4-8.02,2.18-7.88,4.92c0.06,1.24,0.41,2.11,1.09,2.72
				c1.18,1.06,3.47,1.45,7.21,1.22l8.51-0.51c6.74-0.4,8.02-2.18,7.88-4.92c-0.06-1.24-0.4-2.11-1.09-2.72
				C142.89,141.73,141.18,141.31,138.55,141.31z"/>
		</g>
		<g>
			<path class="st0" d="M152.55,187.34h-39.74v-5.84l26.77-10.09h-26.77v-5.8h39.74v6.49l-25.07,9.43h25.07V187.34z"/>
			<path class="st0" d="M152.55,188h-39.74c-0.36,0-0.66-0.29-0.66-0.66v-5.84c0-0.27,0.17-0.52,0.43-0.62l23.39-8.82h-23.16
				c-0.36,0-0.66-0.29-0.66-0.66v-5.8c0-0.36,0.29-0.66,0.66-0.66h39.74c0.36,0,0.66,0.29,0.66,0.66v6.49
				c0,0.27-0.17,0.52-0.43,0.62l-21.7,8.16h21.46c0.36,0,0.66,0.29,0.66,0.66v5.8C153.21,187.7,152.91,188,152.55,188z
				 M113.47,186.68h38.43v-4.48h-24.41c-0.32,0-0.59-0.23-0.65-0.54c-0.06-0.31,0.12-0.62,0.42-0.73l24.65-9.27v-5.38h-38.43v4.48
				h26.11c0.32,0,0.59,0.23,0.65,0.54c0.06,0.31-0.12,0.62-0.42,0.73l-26.34,9.92V186.68z"/>
		</g>
		<g>
			<path class="st0" d="M126.08,193.53h1.11v5.88h-1.11c-4.5,0-6.43,1.06-6.43,3.71c0,2.7,2.05,3.76,6.78,3.76h26.12v6.12h-26.47
				c-9.7,0-13.96-2.98-13.96-9.8C112.11,196.48,116.32,193.53,126.08,193.53z"/>
			<path class="st0" d="M152.55,213.66h-26.47c-10.11,0-14.62-3.22-14.62-10.45c0-7.15,4.51-10.33,14.62-10.33h1.11
				c0.36,0,0.66,0.29,0.66,0.66v5.88c0,0.36-0.29,0.66-0.66,0.66h-1.11c-4.79,0-5.77,1.22-5.77,3.06c0,1.86,1.04,3.1,6.12,3.1h26.12
				c0.36,0,0.66,0.29,0.66,0.66v6.12C153.21,213.37,152.91,213.66,152.55,213.66z M126.08,194.19c-9.33,0-13.31,2.7-13.31,9.02
				c0,6.41,3.98,9.14,13.31,9.14h25.82v-4.81h-25.47c-3.68,0-7.44-0.53-7.44-4.41c0-3.87,3.79-4.37,7.08-4.37h0.45v-4.57H126.08z"/>
		</g>
		<g>
			<path class="st0" d="M120.35,240.63h-7.54V221.2h39.74v19.03h-7.54v-12.9h-8.24v10.86h-7.48v-10.86h-8.94V240.63z"/>
			<path class="st0" d="M120.35,241.29h-7.54c-0.36,0-0.66-0.29-0.66-0.66V221.2c0-0.36,0.29-0.66,0.66-0.66h39.74
				c0.36,0,0.66,0.29,0.66,0.66v19.02c0,0.36-0.29,0.66-0.66,0.66h-7.54c-0.36,0-0.66-0.29-0.66-0.66v-12.24h-6.93v10.2
				c0,0.36-0.29,0.66-0.66,0.66h-7.48c-0.36,0-0.66-0.29-0.66-0.66v-10.2h-7.63v12.65C121.01,240.99,120.71,241.29,120.35,241.29z
				 M113.47,239.97h6.23v-12.65c0-0.36,0.29-0.66,0.66-0.66h8.94c0.36,0,0.66,0.29,0.66,0.66v10.2h6.17v-10.2
				c0-0.36,0.29-0.66,0.66-0.66h8.24c0.36,0,0.66,0.29,0.66,0.66v12.24h6.23v-17.71h-38.43V239.97z"/>
		</g>
		<g>
			<path class="st0" d="M152.55,269.36h-39.74v-5.84l26.77-10.09h-26.77v-5.8h39.74v6.49l-25.07,9.43h25.07V269.36z"/>
			<path class="st0" d="M152.55,270.02h-39.74c-0.36,0-0.66-0.29-0.66-0.66v-5.84c0-0.27,0.17-0.52,0.43-0.62l23.39-8.81h-23.16
				c-0.36,0-0.66-0.29-0.66-0.66v-5.8c0-0.36,0.29-0.66,0.66-0.66h39.74c0.36,0,0.66,0.29,0.66,0.66v6.49
				c0,0.27-0.17,0.52-0.43,0.62l-21.7,8.16h21.46c0.36,0,0.66,0.29,0.66,0.66v5.8C153.21,269.72,152.91,270.02,152.55,270.02z
				 M113.47,268.71h38.43v-4.49h-24.41c-0.32,0-0.59-0.23-0.65-0.54c-0.06-0.31,0.12-0.62,0.42-0.73l24.65-9.27v-5.38h-38.43v4.49
				h26.11c0.32,0,0.59,0.23,0.65,0.54s-0.12,0.62-0.42,0.73l-26.34,9.92V268.71z"/>
		</g>
		<g>
			<path class="st0" d="M127.77,298.87c-10.64,0-15.66-3.47-15.66-10.78c0-7.47,5.2-11.06,15.83-11.06h9.47
				c10.64,0,15.84,3.63,15.84,10.86c0,6.7-4.44,10.49-13.04,10.74v-5.84c3.68-0.21,5.5-1.64,5.5-4.74c0-3.55-2.46-4.9-8.77-4.9
				h-8.53c-6.25,0-8.77,1.43-8.77,5.07c0,3.43,2.28,4.81,8.12,4.81v-4.57h7.54v10.41H127.77z"/>
			<path class="st0" d="M135.31,299.53h-7.54c-10.98,0-16.32-3.74-16.32-11.43c0-7.89,5.39-11.72,16.49-11.72h9.47
				c10.95,0,16.49,3.88,16.49,11.52c0,7.1-4.85,11.14-13.67,11.39c-0.23-0.02-0.35-0.06-0.47-0.18c-0.13-0.13-0.2-0.29-0.2-0.47
				v-5.84c0-0.35,0.27-0.64,0.62-0.66c3.42-0.19,4.88-1.41,4.88-4.08c0-2.62-1.36-4.24-8.11-4.24h-8.53c-6.76,0-8.11,1.69-8.11,4.41
				c0,2.47,1.16,4.04,6.81,4.15v-3.91c0-0.36,0.29-0.66,0.66-0.66h7.54c0.36,0,0.66,0.29,0.66,0.66v10.41
				C135.97,299.23,135.67,299.53,135.31,299.53z M127.95,277.69c-10.36,0-15.18,3.31-15.18,10.41c0,6.91,4.77,10.12,15,10.12h6.88
				v-9.1h-6.23v3.92c0,0.36-0.29,0.66-0.66,0.66c-4.34,0-8.78-0.65-8.78-5.47c0-5.03,4.53-5.72,9.43-5.72h8.53
				c4.89,0,9.42,0.67,9.42,5.56c0,3.22-1.8,4.98-5.5,5.34v4.54c5.5-0.29,11.72-2.33,11.72-10.05c0-6.87-4.97-10.2-15.18-10.2H127.95
				z"/>
		</g>
	</g>
	<g>
		<g>
			<path class="st0" d="M142.3,84.81c-3.8-6.01-9.01-11.25-15.63-15.74c-6.2-4.19-13.98-7.33-23.36-9.42
				c-1.24-0.28-2.57-0.02-3.62,0.68L78.74,74.3c-1.54,1.03-3.55,1.03-5.1,0.01L51.96,59.96c-1.08-0.71-2.43-0.96-3.69-0.65
				c-9.1,2.21-16.67,5.43-22.7,9.67c-6.46,4.55-11.59,9.86-15.39,15.93c-3.8,6.08-6.45,12.67-7.94,19.78
				C0.75,111.8,0,118.99,0,126.27v108.17c0,3.24,2.63,5.86,5.86,5.86h28.9c3.24,0,5.86-2.63,5.86-5.86v-11.67
				c0-6.89,0.89-13.09,2.68-18.61c1.79-5.52,4.58-10.26,8.38-14.23c3.8-3.96,8.7-7.05,14.71-9.25c4.75-1.74,10.27-2.9,16.57-3.47
				c2.97-0.27,5.2-2.84,5.2-5.82c0-6.38,0-16.87,0-23.52c0-3.45-2.99-6.1-6.43-5.82c-2.87,0.23-5.61,0.58-8.23,1.03
				c-4.52,0.78-8.71,1.93-12.57,3.46c-3.86,1.53-7.47,3.43-10.82,5.7c-3.34,2.27-6.51,4.9-9.5,7.89v-37.57c0-1.69,0.1-3.52,0.29-5.5
				c0.19-1.98,0.52-3.99,0.97-6.04c0.46-2.05,1.01-4.03,1.66-5.94c0.65-1.91,1.43-3.03,2.34-4.65l21.53,12.49
				c5.91,3.96,11.63,3.96,17.15,0l21.14-12.89l39.98-8.84C144.69,89,143.59,86.86,142.3,84.81z"/>
		</g>
	</g>
</g>
</svg>
